<svg width="693" height="659" viewBox="0 0 693 659" fill="none" xmlns="http://www.w3.org/2000/svg">
<circle cx="399.5" cy="159.5" r="16.5" fill="#F1F1F1"/>
<circle cx="254.5" cy="316.5" r="16.5" fill="#F1F1F1"/>
<circle cx="401.5" cy="319.5" r="16.5" fill="#F1F1F1"/>
<circle cx="548.5" cy="316.5" r="16.5" fill="#F1F1F1"/>
<circle cx="37.5" cy="474.5" r="16.5" fill="#F1F1F1"/>
<circle cx="184.5" cy="477.5" r="16.5" fill="#F1F1F1"/>
<circle cx="331.5" cy="474.5" r="16.5" fill="#F1F1F1"/>
<circle cx="478.5" cy="477.5" r="16.5" fill="#F1F1F1"/>
<circle cx="625.5" cy="474.5" r="16.5" fill="#F1F1F1"/>
<line x1="400.37" y1="159.336" x2="255.37" y2="319.336" stroke="#F1F1F1"/>
<line x1="548.637" y1="316.344" x2="399.637" y2="159.344" stroke="#F1F1F1"/>
<line x1="401.5" y1="318.006" x2="399.5" y2="159.006" stroke="#F1F1F1"/>
<line x1="401.5" y1="159.006" x2="399.5" y2="0.00629273" stroke="#F1F1F1"/>
<line x1="254.296" y1="316.403" x2="38.2964" y2="475.403" stroke="#F1F1F1"/>
<line y1="-0.5" x2="186.904" y2="-0.5" transform="matrix(-0.203313 0.979114 -0.913604 -0.406605 38 475)" stroke="#F1F1F1"/>
<line y1="-0.5" x2="187.537" y2="-0.5" transform="matrix(0.218624 0.975809 -0.901455 0.432872 38 475)" stroke="#F1F1F1"/>
<line y1="-0.5" x2="186.904" y2="-0.5" transform="matrix(-0.203313 0.979114 -0.913604 -0.406605 183 475)" stroke="#F1F1F1"/>
<line y1="-0.5" x2="187.537" y2="-0.5" transform="matrix(0.218624 0.975809 -0.901455 0.432872 183 475)" stroke="#F1F1F1"/>
<line y1="-0.5" x2="186.904" y2="-0.5" transform="matrix(-0.203313 0.979114 -0.913604 -0.406605 331 475)" stroke="#F1F1F1"/>
<line y1="-0.5" x2="187.537" y2="-0.5" transform="matrix(0.218624 0.975809 -0.901455 0.432872 331 475)" stroke="#F1F1F1"/>
<line y1="-0.5" x2="186.904" y2="-0.5" transform="matrix(-0.203313 0.979114 -0.913604 -0.406605 477 475)" stroke="#F1F1F1"/>
<line y1="-0.5" x2="187.537" y2="-0.5" transform="matrix(0.218624 0.975809 -0.901455 0.432872 477 475)" stroke="#F1F1F1"/>
<line y1="-0.5" x2="186.904" y2="-0.5" transform="matrix(-0.203313 0.979114 -0.913604 -0.406605 625 475)" stroke="#F1F1F1"/>
<line y1="-0.5" x2="187.537" y2="-0.5" transform="matrix(0.218624 0.975809 -0.901455 0.432872 625 475)" stroke="#F1F1F1"/>
<line x1="549.308" y1="316.606" x2="692.308" y2="428.606" stroke="#F1F1F1"/>
<line x1="402.456" y1="320.206" x2="332.456" y2="475.206" stroke="#F1F1F1"/>
<line x1="254.459" y1="316.199" x2="185.459" y2="475.199" stroke="#F1F1F1"/>
<line x1="402.449" y1="319.781" x2="479.449" y2="477.781" stroke="#F1F1F1"/>
<line x1="549.45" y1="315.782" x2="626.45" y2="474.782" stroke="#F1F1F1"/>
</svg>
