<svg width="693" height="516" viewBox="0 0 693 516" fill="none" xmlns="http://www.w3.org/2000/svg">
<circle cx="399.5" cy="16.5" r="16.5" fill="#F1F1F1"/>
<circle cx="254.5" cy="173.5" r="16.5" fill="#F1F1F1"/>
<circle cx="401.5" cy="176.5" r="16.5" fill="#F1F1F1"/>
<circle cx="548.5" cy="173.5" r="16.5" fill="#F1F1F1"/>
<circle cx="37.5" cy="331.5" r="16.5" fill="#F1F1F1"/>
<circle cx="184.5" cy="334.5" r="16.5" fill="#F1F1F1"/>
<circle cx="331.5" cy="331.5" r="16.5" fill="#F1F1F1"/>
<circle cx="478.5" cy="334.5" r="16.5" fill="#F1F1F1"/>
<circle cx="625.5" cy="331.5" r="16.5" fill="#F1F1F1"/>
<line x1="400.37" y1="16.3358" x2="255.37" y2="176.336" stroke="#F1F1F1"/>
<line x1="548.637" y1="173.344" x2="399.637" y2="16.3442" stroke="#F1F1F1"/>
<line x1="401.5" y1="175.006" x2="399.5" y2="16.0063" stroke="#F1F1F1"/>
<line x1="254.296" y1="173.403" x2="38.2964" y2="332.403" stroke="#F1F1F1"/>
<line y1="-0.5" x2="186.904" y2="-0.5" transform="matrix(-0.203313 0.979114 -0.913604 -0.406605 38 332)" stroke="#F1F1F1"/>
<line y1="-0.5" x2="187.537" y2="-0.5" transform="matrix(0.218624 0.975809 -0.901455 0.432872 38 332)" stroke="#F1F1F1"/>
<line y1="-0.5" x2="186.904" y2="-0.5" transform="matrix(-0.203313 0.979114 -0.913604 -0.406605 183 332)" stroke="#F1F1F1"/>
<line y1="-0.5" x2="187.537" y2="-0.5" transform="matrix(0.218624 0.975809 -0.901455 0.432872 183 332)" stroke="#F1F1F1"/>
<line y1="-0.5" x2="186.904" y2="-0.5" transform="matrix(-0.203313 0.979114 -0.913604 -0.406605 331 332)" stroke="#F1F1F1"/>
<line y1="-0.5" x2="187.537" y2="-0.5" transform="matrix(0.218624 0.975809 -0.901455 0.432872 331 332)" stroke="#F1F1F1"/>
<line y1="-0.5" x2="186.904" y2="-0.5" transform="matrix(-0.203313 0.979114 -0.913604 -0.406605 477 332)" stroke="#F1F1F1"/>
<line y1="-0.5" x2="187.537" y2="-0.5" transform="matrix(0.218624 0.975809 -0.901455 0.432872 477 332)" stroke="#F1F1F1"/>
<line y1="-0.5" x2="186.904" y2="-0.5" transform="matrix(-0.203313 0.979114 -0.913604 -0.406605 625 332)" stroke="#F1F1F1"/>
<line y1="-0.5" x2="187.537" y2="-0.5" transform="matrix(0.218624 0.975809 -0.901455 0.432872 625 332)" stroke="#F1F1F1"/>
<line x1="549.308" y1="173.606" x2="692.308" y2="285.606" stroke="#F1F1F1"/>
<line x1="402.456" y1="177.206" x2="332.456" y2="332.206" stroke="#F1F1F1"/>
<line x1="254.459" y1="173.199" x2="185.459" y2="332.199" stroke="#F1F1F1"/>
<line x1="402.449" y1="176.781" x2="479.449" y2="334.781" stroke="#F1F1F1"/>
<line x1="549.45" y1="172.782" x2="626.45" y2="331.782" stroke="#F1F1F1"/>
</svg>
