<svg width="790" height="766" viewBox="0 0 790 766" fill="none" xmlns="http://www.w3.org/2000/svg">
<circle cx="399.5" cy="266.5" r="16.5" fill="#F1F1F1"/>
<circle cx="254.5" cy="423.5" r="16.5" fill="#F1F1F1"/>
<circle cx="401.5" cy="426.5" r="16.5" fill="#F1F1F1"/>
<circle cx="548.5" cy="423.5" r="16.5" fill="#F1F1F1"/>
<circle cx="37.5" cy="581.5" r="16.5" fill="#F1F1F1"/>
<circle cx="184.5" cy="584.5" r="16.5" fill="#F1F1F1"/>
<circle cx="331.5" cy="581.5" r="16.5" fill="#F1F1F1"/>
<circle cx="478.5" cy="584.5" r="16.5" fill="#F1F1F1"/>
<circle cx="625.5" cy="581.5" r="16.5" fill="#F1F1F1"/>
<line x1="400.37" y1="266.336" x2="255.37" y2="426.336" stroke="#F1F1F1"/>
<line x1="548.637" y1="423.344" x2="399.637" y2="266.344" stroke="#F1F1F1"/>
<line x1="401.5" y1="425.006" x2="399.5" y2="266.006" stroke="#F1F1F1"/>
<line x1="398.5" y1="266" x2="398.5" stroke="#F1F1F1"/>
<line x1="254.296" y1="423.403" x2="38.2964" y2="582.403" stroke="#F1F1F1"/>
<line y1="-0.5" x2="186.904" y2="-0.5" transform="matrix(-0.203313 0.979114 -0.913604 -0.406605 38 582)" stroke="#F1F1F1"/>
<line y1="-0.5" x2="187.537" y2="-0.5" transform="matrix(0.218624 0.975809 -0.901455 0.432872 38 582)" stroke="#F1F1F1"/>
<line y1="-0.5" x2="186.904" y2="-0.5" transform="matrix(-0.203313 0.979114 -0.913604 -0.406605 183 582)" stroke="#F1F1F1"/>
<line y1="-0.5" x2="187.537" y2="-0.5" transform="matrix(0.218624 0.975809 -0.901455 0.432872 183 582)" stroke="#F1F1F1"/>
<line y1="-0.5" x2="186.904" y2="-0.5" transform="matrix(-0.203313 0.979114 -0.913604 -0.406605 331 582)" stroke="#F1F1F1"/>
<line y1="-0.5" x2="187.537" y2="-0.5" transform="matrix(0.218624 0.975809 -0.901455 0.432872 331 582)" stroke="#F1F1F1"/>
<line y1="-0.5" x2="186.904" y2="-0.5" transform="matrix(-0.203313 0.979114 -0.913604 -0.406605 477 582)" stroke="#F1F1F1"/>
<line y1="-0.5" x2="187.537" y2="-0.5" transform="matrix(0.218624 0.975809 -0.901455 0.432872 477 582)" stroke="#F1F1F1"/>
<line y1="-0.5" x2="186.904" y2="-0.5" transform="matrix(-0.203313 0.979114 -0.913604 -0.406605 625 582)" stroke="#F1F1F1"/>
<line y1="-0.5" x2="187.537" y2="-0.5" transform="matrix(0.218624 0.975809 -0.901455 0.432872 625 582)" stroke="#F1F1F1"/>
<circle cx="748.5" cy="581.5" r="16.5" fill="#F1F1F1"/>
<line y1="-0.5" x2="186.904" y2="-0.5" transform="matrix(-0.203313 0.979114 -0.913604 -0.406605 748 582)" stroke="#F1F1F1"/>
<line y1="-0.5" x2="187.537" y2="-0.5" transform="matrix(0.218624 0.975809 -0.901455 0.432872 748 582)" stroke="#F1F1F1"/>
<line x1="549.305" y1="423.604" x2="732.305" y2="564.604" stroke="#F1F1F1"/>
<line x1="402.456" y1="427.206" x2="332.456" y2="582.206" stroke="#F1F1F1"/>
<line x1="254.459" y1="423.199" x2="185.459" y2="582.199" stroke="#F1F1F1"/>
<line x1="402.449" y1="426.781" x2="479.449" y2="584.781" stroke="#F1F1F1"/>
<line x1="549.45" y1="422.782" x2="626.45" y2="581.782" stroke="#F1F1F1"/>
</svg>
